<?xml version="1.0" encoding="UTF-8"?>
<svg width="1440px" height="60px" viewBox="0 0 1440 60" version="1.1" xmlns="http://www.w3.org/2000/svg" xmlns:xlink="http://www.w3.org/1999/xlink">
    <!-- Generator: Sketch 50 (54983) - http://www.bohemiancoding.com/sketch -->
    <title>Desktop HD</title>
    <desc>Created with Sketch.</desc>
    <defs></defs>
    <g id="Desktop-HD" stroke="none" stroke-width="1" fill="none" fill-rule="evenodd">
        <path d="M-0.73199815,60.9337356 C110.025383,20.2581761 247.087944,-0.0796035875 410.455685,-0.0796035875 C655.507296,-0.0796035875 841.721679,55.9763657 963.307359,60.9337356 C1084.89304,65.8911054 1094.56474,30.1894674 1158.66982,30.427066 C1201.40654,30.5854651 1295.18327,40.7543549 1440,60.9337356 L-0.73199815,60.9337356 Z" id="Path" fill="#FE7452"></path>
        <path d="M-2.08960664,65.0491072 C258.501015,42.1252032 435.762818,30.6632512 529.695801,30.6632512 C611.557511,30.6632512 1142.20309,55.9235797 1203.41047,55.9235797 C1254.73276,55.9235797 1295.70201,48.7517366 1356.45434,48.7517366 C1378.17879,48.7517366 1407.41687,54.1841935 1444.1686,65.0491072 L-2.08960664,65.0491072 Z" id="Path-2" fill="#F1BD53"></path>
        <path d="M159,65.5210336 C217.386358,41.8403445 263.064913,30 296.035666,30 C364.029079,30 566.828438,54.7077015 628.268807,54.7077015 C689.709175,54.7077015 832.465566,39.8901188 980.030536,39.8901188 C1054.10693,39.8901188 1347.19314,54.7077015 1315.96378,65.5210336 C1294.24673,73.0406784 908.59214,73.0406784 159,65.5210336 Z" id="Path-3" fill="#7BCBB4"></path>
    </g>
</svg>